<svg width="832" height="70" xmlns="http://www.w3.org/2000/svg" xmlns:xlink="http://www.w3.org/1999/xlink" xml:space="preserve" overflow="hidden"><defs><clipPath id="clip0"><rect x="0" y="985" width="832" height="70"/></clipPath><clipPath id="clip1"><rect x="-2" y="-25" width="832" height="1080"/></clipPath><clipPath id="clip2"><rect x="-2" y="-25" width="832" height="1080"/></clipPath><clipPath id="clip3"><rect x="-2" y="-25" width="832" height="1080"/></clipPath><clipPath id="clip4"><rect x="-2" y="-25" width="832" height="1080"/></clipPath></defs><g clip-path="url(#clip0)" transform="matrix(1 0 0 1 0 -985)"><g clip-path="url(#clip1)"><path d="M1019.44 92.4841 991.05 92.4841 929.512 0 957.905 0Z" fill="#A6C233" transform="matrix(1 0 0 1.00074 -209.749 -63.1907)"/><path d="M761.612 235.983 327.286 235.983C321.216 235.983 315.323 234.055 310.475 230.511L296.286 220.096C291.438 216.538 285.545 214.624 279.475 214.624L155.964 214.624 0 1.57512 605.634 1.57512 761.612 235.983Z" fill="#1B1B1B" transform="matrix(1 0 0 1.00074 -209.749 -63.1907)"/><path d="M792.503 258.415 720.537 258.415 564.572 24.007 636.539 24.007Z" fill="#A6C233" transform="matrix(1 0 0 1.00074 -209.749 -63.1907)"/></g><g clip-path="url(#clip2)"><path d="M761.612 1315.4 155.978 1315.4 0 1080.99 605.634 1080.99Z" fill="#A6C233" transform="matrix(1 0 0 1.00074 -209.749 -63.1907)"/></g><g clip-path="url(#clip3)"><path d="M1212.72 1339.23 607.087 1339.23 451.109 1104.83 1056.76 1104.83Z" fill="#1B1B1B" transform="matrix(1 0 0 1.00074 -209.749 -63.1907)"/></g><g clip-path="url(#clip4)"><path d="M1042.85 1155.79 1014.46 1155.79 952.921 1063.3 981.314 1063.3Z" fill="#A6C233" transform="matrix(1 0 0 1.00074 -209.749 -63.1907)"/></g><path d="M804.833 112.241C805.471 111.535 804.779 110.598 804.358 109.96 804.113 109.593 803.76 109.077 803.271 109.009 802.796 108.955 802.375 109.471 802.063 109.743 801.316 110.394 800.895 111.25 800.854 112.227 800.854 112.336 800.854 112.526 800.841 112.35 800.909 112.934 800.99 113.49 801.194 114.047 801.384 114.577 801.669 115.052 801.981 115.513 802.647 116.491 803.434 117.428 804.344 118.216 805.24 118.99 806.245 119.669 807.453 119.913 808.581 120.13 809.667 119.899 810.563 119.207 810.889 118.949 811.473 118.582 811.5 118.148 811.527 117.713 811.16 117.36 810.848 117.089 810.183 116.518 809.192 115.554 808.295 116.26 807.942 116.545 807.562 117.061 807.087 117.129 806.612 117.197 806.164 116.871 805.824 116.613 805.064 116.016 804.317 115.215 803.869 114.359 803.679 113.979 803.516 113.504 803.787 113.124 804.045 112.757 804.521 112.58 804.833 112.241Z" fill="#A6C233" transform="matrix(1 0 0 1.00074 -209.749 -63.1907)"/><path d="M809.422 167.818C808.961 168.022 808.499 168.212 808.037 168.429 807.372 166.936 806.693 165.442 806.028 163.948 805.159 164.736 804.317 165.51 803.448 166.298 803.448 162.957 803.448 159.644 803.448 156.304 805.96 158.571 808.472 160.812 811.011 163.093 809.775 163.202 808.567 163.297 807.358 163.405 808.037 164.872 808.73 166.338 809.422 167.818Z" fill="#A6C233" fill-rule="evenodd" transform="matrix(1 0 0 1.00074 -209.749 -63.1907)"/><path d="M806.136 138.529 800.637 134.469 811.649 134.469Z" fill="#A6C233" transform="matrix(1 0 0 1.00074 -209.749 -63.1907)"/><path d="M803.679 138.828 799.225 142.318 799.225 135.542Z" fill="#A6C233" transform="matrix(1 0 0 1.00074 -209.749 -63.1907)"/><path d="M804.955 139.643 806.136 140.539 807.386 139.602 811.731 143.078 800.596 143.078Z" fill="#A6C233" transform="matrix(1 0 0 1.00074 -209.749 -63.1907)"/><path d="M808.703 138.787 813.102 135.542 813.102 142.318Z" fill="#A6C233" transform="matrix(1 0 0 1.00074 -209.749 -63.1907)"/></g></svg>