<svg width="766" height="105" xmlns="http://www.w3.org/2000/svg" xmlns:xlink="http://www.w3.org/1999/xlink" xml:space="preserve" overflow="hidden"><defs><clipPath id="clip0"><rect x="50" y="0" width="766" height="105"/></clipPath></defs><g clip-path="url(#clip0)" transform="translate(-50 0)"><path d="M21.9258 29.8505 41.4982 35.8073 41.4982 46.8168 46.8035 46.8168 63.1049 29.8505Z" fill="#404040" fill-rule="evenodd" transform="matrix(1.00056 0 0 1 50 0.0853997)"/><path d="M50.0877 27.0317 62.48 27.0317 58.5842 17.8571Z" fill="#A8BF21" fill-rule="evenodd" transform="matrix(1.00056 0 0 1 50 0.0853997)"/><path d="M39.0118 41.9503 39.0118 87.4773 23.1624 104.829 23.1624 59.0096Z" fill="#809133" fill-rule="evenodd" transform="matrix(1.00056 0 0 1 50 0.0853997)"/><path d="M57.0551 56.3902C57.2013 56.3902 57.321 56.4301 57.4141 56.5232 57.5071 56.6163 57.5603 56.7492 57.5603 56.9221L57.5603 57.813C57.5603 58.265 57.4539 58.6373 57.2279 58.9166 57.0019 59.1958 56.7094 59.342 56.337 59.342L54.8478 59.342 54.8478 86.5732C54.8478 86.8391 54.7681 87.0651 54.5952 87.2513 54.4224 87.4374 54.2229 87.5305 53.9836 87.5305L52.4944 87.5305C52.255 87.5305 52.0556 87.4374 51.8827 87.2513 51.7099 87.0651 51.6301 86.8391 51.6301 86.5732L51.6301 59.3553 50.1409 59.3553C49.7686 59.3553 49.4761 59.2091 49.25 58.9299 49.024 58.6506 48.9176 58.2783 48.9176 57.8263L48.9176 56.9354C48.9176 56.7625 48.9708 56.6296 49.0639 56.5365 49.157 56.4434 49.2766 56.4035 49.4229 56.4035L57.0551 56.4035Z" fill="#404040" transform="matrix(1.00056 0 0 1 50 0.0853997)"/><path d="M75.0319 56.3902C75.1781 56.3902 75.2978 56.4301 75.3909 56.5232 75.4839 56.6163 75.5371 56.7492 75.5371 56.9221L75.5371 57.813C75.5371 58.265 75.4307 58.6373 75.2047 58.9166 74.9787 59.1958 74.6861 59.342 74.3139 59.342L71.362 59.342 71.362 70.6573 74.5532 70.6573C74.6994 70.6573 74.8191 70.6972 74.9122 70.7903 75.0053 70.8834 75.0584 71.0163 75.0584 71.1892L75.0584 72.08C75.0584 72.5321 74.9521 72.9044 74.726 73.1836 74.5 73.4629 74.2075 73.6091 73.8352 73.6091L71.362 73.6091 71.362 84.5521 74.3139 84.5521C74.6861 84.5521 74.9787 84.6984 75.2047 84.9776 75.4307 85.2568 75.5371 85.6291 75.5371 86.0812L75.5371 86.9721C75.5371 87.1449 75.4839 87.2779 75.3909 87.371 75.2978 87.464 75.1781 87.5039 75.0319 87.5039L68.6363 87.5039C68.4767 87.5039 68.357 87.4507 68.2773 87.3444 68.1975 87.238 68.1576 87.105 68.1576 86.9455L68.1576 56.9487C68.1576 56.7891 68.1975 56.6562 68.2773 56.5498 68.357 56.4434 68.4767 56.3902 68.6363 56.3902L75.0319 56.3902Z" fill="#404040" transform="matrix(1.00056 0 0 1 50 0.0853997)"/><path d="M95.5616 56.3902C95.7211 56.3902 95.8408 56.4434 95.9206 56.5498 96.0004 56.6562 96.0402 56.7891 96.0402 56.9487L96.0402 86.9721C96.0402 87.1316 96.0004 87.2646 95.9206 87.371 95.8408 87.4773 95.7211 87.5305 95.5616 87.5305L94.2186 87.5305C93.8064 87.5305 93.4873 87.4241 93.2613 87.1981 93.0352 86.9721 92.9023 86.6796 92.8491 86.3205 92.8491 86.1078 92.7826 85.6823 92.6629 85.0574 92.5433 84.4192 92.397 83.6612 92.2109 82.7704 92.0247 81.8795 91.8253 80.9089 91.5992 79.8452 91.3732 78.7815 91.1472 77.6911 90.9344 76.5875 90.7084 75.4839 90.4956 74.3936 90.2962 73.3166 90.0967 72.2396 89.9372 71.269 89.8042 70.3914L90.0435 85.9881C90.0568 86.4402 89.9505 86.8125 89.7111 87.105 89.4718 87.3976 89.1261 87.5438 88.6607 87.5438L87.3178 87.5438C87.1582 87.5438 87.0385 87.4906 86.9588 87.3843 86.879 87.2779 86.8391 87.1449 86.8391 86.9854L86.8391 56.9487C86.8391 56.7891 86.879 56.6562 86.9588 56.5498 87.0385 56.4434 87.1582 56.3902 87.3178 56.3902L88.6607 56.3902C89.0596 56.3902 89.3787 56.5099 89.6314 56.7492 89.884 56.9886 90.017 57.2944 90.0568 57.68 90.0834 57.9592 90.1632 58.4645 90.2696 59.1958 90.376 59.9271 90.5222 60.7781 90.6951 61.762 90.8679 62.7459 91.0674 63.823 91.2668 64.9797 91.4796 66.1365 91.6923 67.2933 91.9051 68.4501 92.1178 69.6069 92.3305 70.6972 92.53 71.7343 92.7294 72.7715 92.9156 73.6756 93.0751 74.4202L92.8358 57.7199C92.8358 57.321 92.9688 56.9886 93.2214 56.7492 93.474 56.4966 93.8064 56.3769 94.2319 56.3769L95.5616 56.3769Z" fill="#404040" transform="matrix(1.00056 0 0 1 50 0.0853997)"/><path d="M114.895 56.3902C115.041 56.3902 115.161 56.4301 115.254 56.5232 115.347 56.6163 115.4 56.7492 115.4 56.9221L115.4 57.813C115.4 58.265 115.294 58.6373 115.067 58.9166 114.841 59.1958 114.549 59.342 114.177 59.342L111.225 59.342 111.225 70.6573 114.416 70.6573C114.562 70.6573 114.682 70.6972 114.775 70.7903 114.868 70.8834 114.921 71.0163 114.921 71.1892L114.921 72.08C114.921 72.5321 114.815 72.9044 114.589 73.1836 114.363 73.4629 114.07 73.6091 113.698 73.6091L111.225 73.6091 111.225 84.5521 114.177 84.5521C114.549 84.5521 114.841 84.6984 115.067 84.9776 115.294 85.2568 115.4 85.6291 115.4 86.0812L115.4 86.9721C115.4 87.1449 115.347 87.2779 115.254 87.371 115.161 87.464 115.041 87.5039 114.895 87.5039L108.499 87.5039C108.339 87.5039 108.22 87.4507 108.14 87.3444 108.06 87.238 108.02 87.105 108.02 86.9455L108.02 56.9487C108.02 56.7891 108.06 56.6562 108.14 56.5498 108.22 56.4434 108.339 56.3902 108.499 56.3902L114.895 56.3902Z" fill="#404040" transform="matrix(1.00056 0 0 1 50 0.0853997)"/><path d="M131.356 56.3902C132.047 56.3902 132.672 56.4966 133.23 56.7226 133.789 56.9487 134.268 57.2412 134.666 57.6268 135.065 58.0124 135.371 58.4911 135.584 59.0495 135.797 59.608 135.903 60.2329 135.903 60.9243L135.903 70.5244C135.903 71.2956 135.757 71.9338 135.478 72.4258 135.198 72.9177 134.813 73.3166 134.321 73.6091 134.813 73.9017 135.198 74.3006 135.478 74.7792 135.757 75.2579 135.903 75.8828 135.903 76.6407L135.903 86.9588C135.903 87.1183 135.863 87.2513 135.783 87.3577 135.704 87.464 135.584 87.5172 135.424 87.5172L134.081 87.5172C133.616 87.5172 133.27 87.371 133.044 87.0784 132.818 86.7859 132.699 86.4136 132.699 85.9615L132.699 76.654C132.699 76.1754 132.592 75.803 132.379 75.5105 132.167 75.218 131.808 75.0717 131.316 75.0717L129.92 75.0717 129.92 85.9615C129.92 86.4136 129.8 86.7859 129.574 87.0784 129.348 87.371 128.989 87.5172 128.537 87.5172L127.194 87.5172C127.034 87.5172 126.915 87.464 126.835 87.3577 126.755 87.2513 126.715 87.1183 126.715 86.9588L126.715 56.9487C126.715 56.7891 126.755 56.6562 126.835 56.5498 126.915 56.4434 127.034 56.3902 127.194 56.3902L131.356 56.3902ZM129.92 59.3553 129.92 72.1199 131.316 72.1199C131.794 72.1199 132.14 71.9737 132.366 71.6679 132.592 71.3753 132.699 70.9897 132.699 70.5377L132.699 60.9376C132.699 60.4855 132.579 60.0999 132.353 59.8074 132.127 59.5149 131.768 59.3553 131.316 59.3553L129.92 59.3553Z" fill="#404040" transform="matrix(1.00056 0 0 1 50 0.0853997)"/><path d="M155.648 73.1969C155.808 73.1969 155.927 73.2501 156.007 73.3565 156.087 73.4629 156.127 73.5958 156.127 73.7554L156.127 83.4086C156.127 84.818 155.728 85.9217 154.917 86.7327 154.106 87.5438 152.976 87.9427 151.526 87.9427 150.822 87.9427 150.197 87.8363 149.638 87.6236 149.08 87.4108 148.601 87.105 148.189 86.7194 147.777 86.3205 147.471 85.8552 147.258 85.2967 147.045 84.7383 146.939 84.1133 146.939 83.4086L146.939 60.5121C146.939 59.1027 147.338 57.9991 148.149 57.188 148.96 56.3769 150.09 55.978 151.54 55.978 152.231 55.978 152.856 56.0844 153.414 56.2972 153.986 56.5099 154.465 56.8157 154.877 57.2013 155.289 57.6002 155.595 58.0656 155.808 58.624 156.021 59.1825 156.127 59.8074 156.127 60.5121L156.127 70.5111C156.127 70.6706 156.087 70.8036 156.007 70.91 155.927 71.0163 155.808 71.0695 155.648 71.0695L154.305 71.0695C153.84 71.0695 153.494 70.9233 153.268 70.6307 153.042 70.3382 152.922 69.9659 152.922 69.5138L152.922 60.5121C152.922 60.0335 152.816 59.6612 152.59 59.3686 152.364 59.0761 152.018 58.9299 151.54 58.9299 151.074 58.9299 150.729 59.0761 150.503 59.3686 150.276 59.6612 150.157 60.0468 150.157 60.5121L150.157 83.4086C150.157 83.8873 150.263 84.2596 150.489 84.5521 150.715 84.8446 151.061 84.9909 151.54 84.9909 152.005 84.9909 152.351 84.8446 152.577 84.5521 152.803 84.2596 152.922 83.874 152.922 83.4086L152.922 76.1488C151.965 76.1488 151.486 75.6435 151.486 74.6197L151.486 73.7288C151.486 73.5559 151.54 73.423 151.633 73.3299 151.726 73.2368 151.845 73.1969 151.992 73.1969L155.648 73.1969Z" fill="#404040" transform="matrix(1.00056 0 0 1 50 0.0853997)"/><path d="M173.346 86.5732C173.346 86.8391 173.266 87.0651 173.093 87.2513 172.92 87.4374 172.721 87.5305 172.482 87.5305L170.992 87.5305C170.753 87.5305 170.554 87.4374 170.381 87.2513 170.208 87.0651 170.128 86.8391 170.128 86.5732L170.128 74.992 167.682 56.9487C167.655 56.7891 167.682 56.6562 167.775 56.5498 167.868 56.4434 168.001 56.3902 168.16 56.3902L169.503 56.3902C169.968 56.3902 170.301 56.5365 170.527 56.829 170.74 57.1215 170.873 57.4938 170.899 57.9459L171.737 69.1282 172.601 57.9459C172.628 57.4938 172.761 57.1215 172.973 56.829 173.186 56.5365 173.532 56.3902 173.997 56.3902L175.34 56.3902C175.5 56.3902 175.633 56.4434 175.726 56.5498 175.819 56.6562 175.859 56.7891 175.819 56.9487L173.346 74.992 173.346 86.5732Z" fill="#404040" transform="matrix(1.00056 0 0 1 50 0.0853997)"/><path d="M13.2832 31.5392 36.1663 38.5198 22.5774 53.0661 0 46.1786Z" fill="#A8BF21" fill-rule="evenodd" transform="matrix(1.00056 0 0 1 50 0.0853997)"/><path d="M233.326 0 233.326 0C233.326 9.97234 241.41 18.0433 251.369 18.0433L469.604 18.0433C484.908 18.0433 499.747 23.2289 511.727 32.7359L534.969 51.2046C546.949 60.7249 561.788 65.8972 577.092 65.8972L765.57 65.8972 765.57 0 233.326 0Z" fill="#A8BF21" transform="matrix(1.00056 0 0 1 50 0.0853997)"/></g></svg>